<?xml version="1.0" encoding="UTF-8"?>
<!DOCTYPE svg PUBLIC "-//W3C//DTD SVG 1.1//EN" "http://www.w3.org/Graphics/SVG/1.1/DTD/svg11.dtd">
<!-- Creator: CorelDRAW -->
<svg xmlns="http://www.w3.org/2000/svg" xml:space="preserve" width="135.467mm" height="135.467mm" version="1.1" style="shape-rendering:geometricPrecision; text-rendering:geometricPrecision; image-rendering:optimizeQuality; fill-rule:evenodd; clip-rule:evenodd"
viewBox="0 0 13546.66 13546.66"
 xmlns:xlink="http://www.w3.org/1999/xlink"
 xmlns:xodm="http://www.corel.com/coreldraw/odm/2003">
 <defs>
  <style type="text/css">
   <![CDATA[
    .str0 {stroke:black;stroke-width:150;stroke-miterlimit:22.9256}
    .fil2 {fill:gray}
    .fil1 {fill:#BA001F}
    .fil3 {fill:black;fill-rule:nonzero}
    .fil0 {fill:#E6E6E6;fill-rule:nonzero}
   ]]>
  </style>
 </defs>
 <g id="Layer_x0020_1">
  <metadata id="CorelCorpID_0Corel-Layer"/>
  <g id="_2500722728224">
   <path class="fil0 str0" d="M1686.2 0.53l10160 0c935.04,0 1693.33,758.29 1693.33,1693.33l0 10160c0,935.03 -758.29,1693.32 -1693.33,1693.32l-10160 0.01c-935.03,-0.01 -1693.32,-758.3 -1693.32,-1693.34l-0.01 -10159.99c0.01,-935.04 758.3,-1693.33 1693.34,-1693.33z"/>
  </g>
  <g id="_2500722729040">
   <path class="fil1" d="M3627.35 5873.93l-2468.04 3387.47 2337.17 0 1467.31 -1934.79c-574.98,-342.6 -1041.73,-847.97 -1336.44,-1452.68z"/>
   <path class="fil2" d="M12285.31 9261.4l-4334.47 -5949.18c-675.69,-927.43 -1754.77,-963.95 -2397.96,-81.13l-1650.27 2265.03c254.91,636.64 719.22,1166.8 1307.72,1505.4l1511.96 -1993.65 3225.85 4253.53 2337.17 0z"/>
   <path class="fil3" d="M2031.69 10938.42l-613.91 -888.56c-42.58,-61.7 -102.81,-110.15 -193.87,-110.15 -95.45,0 -155.67,52.87 -196.78,110.15l-630.09 888.56 359.84 0 461.16 -652.11 176.26 259.97c32.29,47 73.43,107.21 99.87,142.45 -47,-2.92 -116.04,-2.92 -174.77,-2.92l-246.76 0 -183.57 252.61 1142.62 0z"/>
   <path class="fil3" d="M3249.22 10433.17c67.57,-24.94 133.67,-89.56 133.67,-205.6 0,-180.64 -151.29,-271.71 -386.28,-271.71l-650.61 0 -205.64 255.55 869.47 0c42.6,0 85.18,14.69 85.18,63.15 0,49.95 -41.13,66.09 -85.18,66.09l-869.47 0 0 597.77 863.61 0c309.89,0 399.45,-123.37 399.45,-286.39 0,-117.51 -69,-193.87 -154.2,-218.86zm-243.81 117.52c66.1,0 94,23.48 94,66.09 0,45.51 -27.9,69.03 -94,69.03l-559.56 0 0 -135.12 559.56 0z"/>
   <path class="fil3" d="M4077.55 10043.98c-35.25,-64.62 -88.12,-104.27 -165.95,-104.27 -76.39,0 -145.4,44.05 -171.83,135.13l-254.1 863.58 298.16 0 92.52 -342.22c29.36,-110.15 51.4,-192.38 66.1,-270.21 30.83,66.08 66.08,135.1 138.06,270.21l132.18 248.21c51.38,96.92 101.34,110.15 174.75,110.15 73.46,0 123.37,-13.23 174.77,-110.15l132.21 -246.73c67.53,-127.77 104.27,-202.67 136.58,-271.69 16.15,79.3 36.7,158.62 67.55,270.21l92.52 342.22 302.56 0 -248.21 -863.58c-26.43,-91.08 -94,-135.13 -170.36,-135.13 -79.31,0 -132.19,41.14 -167.44,104.27l-157.16 279.05c-86.63,151.28 -124.81,223.25 -157.13,292.28 -33.79,-69.03 -71.98,-142.47 -158.62,-293.76l-157.16 -277.57z"/>
   <path class="fil3" d="M6392.21 10543.34l508.16 0 0 142.47 -371.58 0c-168.91,0 -289.34,-92.53 -289.34,-235.01 0,-139.51 124.83,-239.39 289.34,-239.39l506.69 0 196.79 -255.55 -703.48 0c-340.74,0 -591.88,193.88 -591.88,481.73 0,284.94 251.14,500.83 591.88,500.83l674.11 0 0 -613.91 -628.57 0 -182.12 218.83z"/>
   <path class="fil3" d="M8590.82 10747.48c-67.57,-69.02 -104.29,-104.27 -138.06,-129.24 161.54,-32.31 257.03,-158.62 257.03,-311.35 0,-280.53 -281.99,-351.03 -505.25,-351.03l-631.53 0 -198.27 255.55 854.79 0c104.27,0 167.42,38.2 167.42,114.58 0,67.53 -73.44,110.15 -167.42,110.15l-854.79 0 0 502.28 304.02 0 0 -259.96 467.03 0 218.86 259.96 406.82 0 -180.65 -190.94z"/>
   <path class="fil3" d="M9532.23 9939.71c-478.78,0 -718.18,155.69 -718.18,506.69 0,351.03 239.4,508.16 718.18,508.16 477.33,0 718.18,-157.13 718.18,-508.16 0,-351 -240.85,-506.69 -718.18,-506.69zm0 759.3c-305.49,0 -415.64,-41.12 -415.64,-252.61 0,-211.5 110.15,-251.15 415.64,-251.15 305.48,0 415.63,39.65 415.63,251.15 0,211.49 -110.15,252.61 -415.63,252.61z"/>
   <path class="fil3" d="M11680.89 9955.86l-305.49 0 0 553.7c0,138.07 -73.43,192.38 -306.93,192.38 -312.83,0 -374.51,-46.98 -374.51,-192.38l0 -553.7 -302.58 0 0 553.7c0,296.69 204.16,445 677.09,445 408.28,0 612.42,-148.31 612.42,-445l0 -553.7z"/>
   <path class="fil3" d="M13149.58 10324.51c0,-218.85 -177.7,-368.65 -481.71,-368.65l-616.87 0 -201.2 255.55 845.95 0c94.02,0 148.36,42.61 148.36,111.62 0,67.58 -54.34,113.11 -148.36,113.11l-845.95 0 0 502.28 302.54 0 0 -251.14 514.06 0c305.48,0 483.18,-145.4 483.18,-362.77z"/>
  </g>
 </g>
</svg>
